# xmcd CD database file
#
# Track frame offsets:
#	150
#	24837
#	56742
#	76430
#	104130
#	118032
#	146542
#	161917
#	176585
#	192322
#	214375
#	242320
#	265990
#	295805
#	325112
#
# Disc length: 4512 seconds
#
# Revision: 2
# Processed by: cddbd v1.5.1PL2 Copyright (c) Steve Scherf et al.
# Submitted via: CDex 1.50
#
DISCID=de119e0f
DTITLE=Compilation - Salsa 'La Musica Que Se Fuma' CD1
DYEAR=1994
DGENRE=Salsa
TTITLE0=Reve Y Su Charangon-Rumberos Latinos Americanos
TTITLE1=Original De Manzanillo-Coge El Camaron
TTITLE2=Los Van Van-Que Pista
TTITLE3=NG La Banda--La Expresiva
TTITLE4=Orquesta Aragon-Caserita Villarena
TTITLE5=Adalberto Alvarez Y Su Son-El Regresso De Maria
TTITLE6=Benny More-Locas Por El Mambo
TTITLE7=Irakere-Taka Taka Ta
TTITLE8=Celina Gonzales-Santa Barbara
TTITLE9=Reve Y Su Charangon-Salgado
TTITLE10=Original De Manzanillo-El Barrendero
TTITLE11=Los Van Van-La Havana Si
TTITLE12=Malena Burke Y NG La Banda-Homenaje A Matamoros
TTITLE13=NG La Banda-La Protesta De Los Chivos
TTITLE14=Orquesta Aragon]-Baila Carola
EXTD=YEAR: 1994
EXTT0=
EXTT1=
EXTT2=
EXTT3=
EXTT4=
EXTT5=
EXTT6=
EXTT7=
EXTT8=
EXTT9=
EXTT10=
EXTT11=
EXTT12=
EXTT13=
EXTT14=
PLAYORDER=
